<?xml version="1.0" encoding="UTF-8" standalone="no"?>
<!-- Created with Inkscape (http://www.inkscape.org/) -->

<svg
   xmlns:dc="http://purl.org/dc/elements/1.1/"
   xmlns:cc="http://creativecommons.org/ns#"
   xmlns:rdf="http://www.w3.org/1999/02/22-rdf-syntax-ns#"
   xmlns:svg="http://www.w3.org/2000/svg"
   xmlns="http://www.w3.org/2000/svg"
   xmlns:sodipodi="http://sodipodi.sourceforge.net/DTD/sodipodi-0.dtd"
   xmlns:inkscape="http://www.inkscape.org/namespaces/inkscape"
   width="200mm"
   height="200mm"
   viewBox="0 0 708.66142 708.66142"
   id="svg7219"
   version="1.1"
   inkscape:version="0.91 r13725"
   sodipodi:docname="omega-inkscape.svg">
  <defs
     id="defs7221" />
  <sodipodi:namedview
     id="base"
     pagecolor="#ffffff"
     bordercolor="#666666"
     borderopacity="1.0"
     inkscape:pageopacity="0.0"
     inkscape:pageshadow="2"
     inkscape:zoom="0.61717647"
     inkscape:cx="748.82099"
     inkscape:cy="340.5457"
     inkscape:document-units="px"
     inkscape:current-layer="layer1"
     showgrid="false"
     inkscape:window-width="1920"
     inkscape:window-height="1141"
     inkscape:window-x="1920"
     inkscape:window-y="0"
     inkscape:window-maximized="1" />
  <metadata
     id="metadata7224">
    <rdf:RDF>
      <cc:Work
         rdf:about="">
        <dc:format>image/svg+xml</dc:format>
        <dc:type
           rdf:resource="http://purl.org/dc/dcmitype/StillImage" />
        <dc:title></dc:title>
      </cc:Work>
    </rdf:RDF>
  </metadata>
  <g
     inkscape:label="Layer 1"
     inkscape:groupmode="layer"
     id="layer1"
     transform="translate(0,-343.70079)">
    <path
       style="opacity:1;fill:#000000;fill-opacity:1;stroke:#000000;stroke-width:0.10000001;stroke-linecap:square;stroke-linejoin:miter;stroke-miterlimit:4;stroke-dasharray:none;stroke-opacity:1"
       d="M 354.32791,379.98463 A 307.32393,307.3232 0 0 0 47.007623,687.30978 307.32393,307.3232 0 0 0 166.64285,930.43607 l -119.635227,0 0,85.64223 237.338057,0 0,-118.77487 A 221.53916,221.53863 0 0 1 132.79247,687.30978 221.53916,221.53863 0 0 1 354.32791,465.76927 221.53916,221.53863 0 0 1 575.86894,687.30978 221.53916,221.53863 0 0 1 424.31572,897.21128 l 0,118.86702 237.33807,0 0,-85.64223 -119.95916,0 A 307.32393,307.3232 0 0 0 661.65379,687.30978 307.32393,307.3232 0 0 0 354.32791,379.98463 Z"
       id="rect7767"
       inkscape:connector-curvature="0" />
  </g>
</svg>
