<?xml version="1.0" encoding="UTF-8" standalone="no"?>
<svg xmlns="http://www.w3.org/2000/svg" viewBox="0 0 250 150" height="150" width="250"><g transform="translate(0,-902.36216)"><path d="m 50.345623,947.37534 0,59.97366 9.084924,0 q 15.536538,0 23.699803,-7.70243 8.229098,-7.70244 8.229098,-22.38315 0,-14.61488 -8.163265,-22.25148 -8.163266,-7.6366 -23.765636,-7.6366 l -9.084924,0 z M 25,928.218 l 26.728111,0 q 22.383147,0 33.31139,3.2258 10.994075,3.15998 18.828179,10.79658 6.91244,6.64911 10.26991,15.33904 3.35747,8.68993 3.35747,19.684 0,11.12574 -3.35747,19.8815 -3.35747,8.68998 -10.26991,15.33908 -7.899937,7.6366 -18.959845,10.8624 -11.059908,3.1599 -33.179724,3.1599 l -26.728111,0 0,-98.2883 z" /><path d="m 136.91573,928.218 28.3081,0 35.7472,67.41277 0,-67.41277 24.02897,0 0,98.2883 -28.3081,0 -35.7472,-67.41273 0,67.41273 -24.02897,0 0,-98.2883 z" /></g></svg>
